<svg width="128" height="128" viewBox="0 0 128 128" fill="none" xmlns="http://www.w3.org/2000/svg">
<g clip-path="url(#clip0_36_12)">
<path d="M18.2151 17.7778H39.5484C43.4738 17.7778 46.2222 17.408 46.2222 21.3333V14.2222C46.2222 10.2969 43.4738 7.11108 39.5484 7.11108H11.104C3.99288 7.11108 -1.63557 14.6666 0.43732 24.8889C0.43732 24.8889 6.80532 58.2222 7.25332 60.2951C8.43732 65.7778 14.8053 71.1111 21.6213 71.1111H46.3609C50.2898 71.1111 46.2222 64.3698 46.2222 60.4444V53.3333C46.2222 57.2586 43.4738 60.4444 39.5484 60.4444H25.3262C21.4009 60.4444 18.8089 56.7395 18.2151 53.3333C17.6213 49.9271 12.5831 27.2604 12.5831 27.2604C11.3991 20.4444 14.2862 17.7778 18.2151 17.7778ZM109.991 17.7778H88.6578C84.7324 17.7778 78.2222 17.408 78.2222 21.3333V14.2222C78.2222 10.2969 84.7324 7.11108 88.6578 7.11108H117.102C124.213 7.11108 129.845 14.6666 127.769 24.8889C127.769 24.8889 121.963 58.3786 121.472 60.4444C120.213 65.7778 114.212 71.1111 107.25 71.1111H81.8418C77.9164 71.1111 78.2222 64.3698 78.2222 60.4444V53.3333C78.2222 57.2586 84.7324 60.4444 88.6578 60.4444H102.88C106.805 60.4444 109.401 56.7395 109.991 53.3333C110.581 49.9271 115.623 27.2604 115.623 27.2604C116.804 20.4444 113.92 17.7778 109.991 17.7778ZM74.0693 78.2222C74.0693 53.4826 64.4373 78.2222 64.4373 78.2222C64.4373 78.2222 53.7707 53.4826 53.7707 78.2222C53.7707 102.962 42.0693 113.778 42.0693 113.778H85.7742C85.7707 113.778 74.0693 102.962 74.0693 78.2222Z" fill="#88451F"/>
<path d="M103.548 23.385C103.548 47.4739 79.4773 88.0676 64.4373 88.0676C49.3937 88.0676 25.3262 47.4739 25.3262 23.385C25.3262 4.91387 28.8817 0.91743 35.9928 0.91743C40.8782 0.91743 57.4151 0.821431 64.4373 0.821431L89.3262 0.817875C99.6977 0.814319 103.548 3.24987 103.548 23.385Z" fill="#C1612B"/>
<path d="M92 115.667C92 119.592 92.8071 122.778 88.8818 122.778H31.9929C28.064 122.778 28 119.592 28 115.667V112.111C28 108.186 32.1387 105 35.8436 105H85.3262C89.0311 105 92 108.186 92 112.111V115.667Z" fill="#C1694F"/>
<path d="M103.111 123.111C103.111 125.813 103.698 128 98.6596 128H30.2151C25.6214 128 24.8889 125.813 24.8889 123.111V122.222C24.8889 119.52 27.5129 117.333 30.2151 117.333H98.6596C101.358 117.333 103.111 119.52 103.111 122.222V123.111Z" fill="#C1694F"/>
<circle cx="64.5" cy="37.5" r="22" fill="#88451F" stroke="#BFBFBF"/>
<path d="M69.1562 38.8203C69.5391 39.1484 69.8438 39.5312 70.0703 39.9688C70.2969 40.4062 70.4102 40.9883 70.4102 41.7148C70.4102 42.5352 70.2461 43.3008 69.918 44.0117C69.5977 44.7227 69.1016 45.332 68.4297 45.8398C67.7734 46.332 67 46.7109 66.1094 46.9766C65.2266 47.2344 64.1523 47.3633 62.8867 47.3633C61.4414 47.3633 60.1992 47.25 59.1602 47.0234C58.1289 46.7969 57.2891 46.543 56.6406 46.2617V42.4297H57.0977C57.7695 42.8359 58.5703 43.1875 59.5 43.4844C60.4375 43.7812 61.293 43.9297 62.0664 43.9297C62.5195 43.9297 63.0117 43.8945 63.543 43.8242C64.0742 43.7461 64.5234 43.582 64.8906 43.332C65.1797 43.1367 65.4102 42.9023 65.582 42.6289C65.7539 42.3477 65.8398 41.9453 65.8398 41.4219C65.8398 40.9141 65.7227 40.5234 65.4883 40.25C65.2539 39.9688 64.9453 39.7695 64.5625 39.6523C64.1797 39.5273 63.7188 39.4609 63.1797 39.4531C62.6406 39.4375 62.1406 39.4297 61.6797 39.4297H60.7188V36.3125H61.7148C62.3242 36.3125 62.8633 36.293 63.332 36.2539C63.8008 36.2148 64.1992 36.125 64.5273 35.9844C64.8711 35.8359 65.1289 35.6406 65.3008 35.3984C65.4727 35.1484 65.5586 34.7852 65.5586 34.3086C65.5586 33.957 65.4688 33.6758 65.2891 33.4648C65.1094 33.2461 64.8828 33.0742 64.6094 32.9492C64.3047 32.8086 63.9453 32.7148 63.5312 32.668C63.1172 32.6211 62.7617 32.5977 62.4648 32.5977C61.7305 32.5977 60.9336 32.7266 60.0742 32.9844C59.2148 33.2344 58.3828 33.5977 57.5781 34.0742H57.1445V30.2891C57.7852 30.0312 58.6562 29.7852 59.7578 29.5508C60.8594 29.3086 61.9766 29.1875 63.1094 29.1875C64.2109 29.1875 65.1758 29.2852 66.0039 29.4805C66.832 29.668 67.5156 29.9219 68.0547 30.2422C68.6953 30.625 69.1719 31.0898 69.4844 31.6367C69.7969 32.1836 69.9531 32.8242 69.9531 33.5586C69.9531 34.5273 69.6523 35.3945 69.0508 36.1602C68.4492 36.918 67.6562 37.4023 66.6719 37.6133V37.7773C67.0703 37.832 67.4922 37.9414 67.9375 38.1055C68.3828 38.2695 68.7891 38.5078 69.1562 38.8203Z" fill="white"/>
</g>
<defs>
<clipPath id="clip0_36_12">
<rect width="128" height="128" fill="white"/>
</clipPath>
</defs>
</svg>
