<svg width="128" height="128" viewBox="0 0 128 128" fill="none" xmlns="http://www.w3.org/2000/svg">
<g clip-path="url(#clip0_36_2)">
<path d="M18.2151 17.7778H39.5484C43.4738 17.7778 46.2222 17.408 46.2222 21.3333V14.2222C46.2222 10.2969 43.4738 7.11108 39.5484 7.11108H11.104C3.99288 7.11108 -1.63557 14.6666 0.43732 24.8889C0.43732 24.8889 6.80532 58.2222 7.25332 60.2951C8.43732 65.7778 14.8053 71.1111 21.6213 71.1111H46.3609C50.2898 71.1111 46.2222 64.3698 46.2222 60.4444V53.3333C46.2222 57.2586 43.4738 60.4444 39.5484 60.4444H25.3262C21.4009 60.4444 18.8089 56.7395 18.2151 53.3333C17.6213 49.9271 12.5831 27.2604 12.5831 27.2604C11.3991 20.4444 14.2862 17.7778 18.2151 17.7778ZM109.991 17.7778H88.6578C84.7324 17.7778 78.2222 17.408 78.2222 21.3333V14.2222C78.2222 10.2969 84.7324 7.11108 88.6578 7.11108H117.102C124.213 7.11108 129.845 14.6666 127.769 24.8889C127.769 24.8889 121.963 58.3786 121.472 60.4444C120.213 65.7778 114.212 71.1111 107.25 71.1111H81.8418C77.9164 71.1111 78.2222 64.3698 78.2222 60.4444V53.3333C78.2222 57.2586 84.7324 60.4444 88.6578 60.4444H102.88C106.805 60.4444 109.401 56.7395 109.991 53.3333C110.581 49.9271 115.623 27.2604 115.623 27.2604C116.804 20.4444 113.92 17.7778 109.991 17.7778ZM74.0693 78.2222C74.0693 53.4826 64.4373 78.2222 64.4373 78.2222C64.4373 78.2222 53.7707 53.4826 53.7707 78.2222C53.7707 102.962 42.0693 113.778 42.0693 113.778H85.7742C85.7707 113.778 74.0693 102.962 74.0693 78.2222Z" fill="#FFAC33"/>
<path d="M103.548 23.385C103.548 47.4739 79.4773 88.0676 64.4373 88.0676C49.3937 88.0676 25.3262 47.4739 25.3262 23.385C25.3262 4.91387 28.8817 0.91743 35.9928 0.91743C40.8782 0.91743 57.4151 0.821431 64.4373 0.821431L89.3262 0.817875C99.6977 0.814319 103.548 3.24987 103.548 23.385Z" fill="#FFCC4D"/>
<path d="M96 117.333C96 121.259 96.8071 124.445 92.8818 124.445H35.9929C32.064 124.445 32 121.259 32 117.333V113.778C32 109.853 36.1387 106.667 39.8436 106.667H89.3262C93.0311 106.667 96 109.853 96 113.778V117.333Z" fill="#C1694F"/>
<path d="M103.111 123.111C103.111 125.813 103.698 128 98.6596 128H30.2151C25.6214 128 24.8889 125.813 24.8889 123.111V122.222C24.8889 119.52 27.5129 117.333 30.2151 117.333H98.6596C101.358 117.333 103.111 119.52 103.111 122.222V123.111Z" fill="#C1694F"/>
<circle cx="64.5" cy="33.5" r="22" fill="#FFAC33" stroke="white"/>
<path d="M69.7656 43H58.1172V39.9531H61.7969V30.7305H58.1172V27.8828C58.6797 27.8828 59.2188 27.8516 59.7344 27.7891C60.25 27.7188 60.6797 27.6016 61.0234 27.4375C61.4297 27.2422 61.7344 26.9883 61.9375 26.6758C62.1406 26.3633 62.2578 25.9727 62.2891 25.5039H66.168V39.9531H69.7656V43Z" fill="white"/>
</g>
<defs>
<clipPath id="clip0_36_2">
<rect width="128" height="128" fill="white"/>
</clipPath>
</defs>
</svg>
